<svg width="29" height="25" xmlns="http://www.w3.org/2000/svg" class="css-qq1709"><path d="M26.214 25C27.752 25 29 23.8 29 22.321V15.18c0-1.48-1.248-2.679-2.786-2.679h-4.643V8.929c0-1.97 1.666-3.572 3.715-3.572h.464c.772 0 1.393-.597 1.393-1.34V1.34c0-.743-.621-1.34-1.393-1.34h-.464C20.156 0 16 3.996 16 8.929V22.32c0 1.481 1.248 2.68 2.786 2.68h7.428zm-16 0C11.752 25 13 23.8 13 22.321V15.18c0-1.48-1.248-2.679-2.786-2.679H5.571V8.929c0-1.97 1.666-3.572 3.715-3.572h.464c.772 0 1.393-.597 1.393-1.34V1.34C11.143.597 10.522 0 9.75 0h-.464C4.156 0 0 3.996 0 8.929V22.32C0 23.801 1.248 25 2.786 25h7.428z" fill="#1A202C"></path></svg>
